<svg width="30" height="30" viewBox="0 0 30 30" fill="none" xmlns="http://www.w3.org/2000/svg">
<path d="M15.0001 29.2031C14.1876 29.2031 13.4926 28.9137 12.9151 28.335C12.3363 27.7575 12.047 27.0625 12.047 26.25V17.9531H3.75009C2.93759 17.9531 2.24259 17.6637 1.66509 17.085C1.08634 16.5075 0.796967 15.8125 0.796967 15C0.796967 14.1875 1.08634 13.4919 1.66509 12.9131C2.24259 12.3356 2.93759 12.0469 3.75009 12.0469H12.047V3.75C12.047 2.9375 12.3363 2.24187 12.9151 1.66312C13.4926 1.08562 14.1876 0.796875 15.0001 0.796875C15.8126 0.796875 16.5082 1.08562 17.087 1.66312C17.6645 2.24187 17.9532 2.9375 17.9532 3.75V12.0469H26.2501C27.0626 12.0469 27.7582 12.3356 28.337 12.9131C28.9145 13.4919 29.2032 14.1875 29.2032 15C29.2032 15.8125 28.9145 16.5075 28.337 17.085C27.7582 17.6637 27.0626 17.9531 26.2501 17.9531H17.9532V26.25C17.9532 27.0625 17.6645 27.7575 17.087 28.335C16.5082 28.9137 15.8126 29.2031 15.0001 29.2031Z" fill="#1E90FF"/>
</svg>
